<?xml version="1.0" encoding="UTF-8" standalone="no"?><svg xmlns="http://www.w3.org/2000/svg" xmlns:xlink="http://www.w3.org/1999/xlink" contentScriptType="application/ecmascript" contentStyleType="text/css" height="504px" preserveAspectRatio="none" style="width:660px;height:504px;background:#FFFFFF;" version="1.1" viewBox="0 0 660 504" width="660px" zoomAndPan="magnify"><defs/><g><rect fill="none" height="12.5781" style="stroke:none;stroke-width:1.0;" width="28" x="583" y="10"/><text fill="#888888" font-family="sans-serif" font-size="10" lengthAdjust="spacing" textLength="28" x="583" y="20.3809">[nixiy]</text><rect fill="#53B0AE" fill-opacity="0.74902" height="37.6094" rx="7.5" ry="7.5" style="stroke:#A80036;stroke-width:0.0;" width="44" x="10" y="239.1738"/><text fill="#000000" font-family="sans-serif" font-size="14" lengthAdjust="spacing" textLength="24" x="20" y="263.707">wbs</text><rect fill="#FA9A85" height="37.6094" rx="7.5" ry="7.5" style="stroke:#A80036;stroke-width:0.0;" width="43" x="90" y="48.3828"/><text fill="#000000" font-family="sans-serif" font-size="14" lengthAdjust="spacing" textLength="23" x="100" y="72.916">sub</text><rect fill="#FA9A85" fill-opacity="0.80000" height="37.6094" rx="7.5" ry="7.5" style="stroke:#A80036;stroke-width:0.0;" width="51" x="169" y="26.5781"/><text fill="#000000" font-family="sans-serif" font-size="14" lengthAdjust="spacing" textLength="31" x="179" y="51.1113">subb</text><path d="M133,67.1875 L143,67.1875 C158,67.1875 144,45.3828 159,45.3828 L169,45.3828 " fill="none" style="stroke:#99999999;stroke-width:1.0;"/><rect fill="#FA9A85" fill-opacity="0.80000" height="37.6094" rx="7.5" ry="7.5" style="stroke:#A80036;stroke-width:0.0;" width="51" x="169" y="70.1875"/><text fill="#000000" font-family="sans-serif" font-size="14" lengthAdjust="spacing" textLength="31" x="179" y="94.7207">subb</text><path d="M133,67.1875 L143,67.1875 C158,67.1875 144,88.9922 159,88.9922 L169,88.9922 " fill="none" style="stroke:#99999999;stroke-width:1.0;"/><path d="M54,257.9785 L64,257.9785 C79,257.9785 65,67.1875 80,67.1875 L90,67.1875 " fill="none" style="stroke:#99999999;stroke-width:1.0;"/><rect fill="#FA9A85" height="37.6094" rx="7.5" ry="7.5" style="stroke:#A80036;stroke-width:0.0;" width="43" x="90" y="282.7832"/><text fill="#000000" font-family="sans-serif" font-size="14" lengthAdjust="spacing" textLength="23" x="100" y="307.3164">sub</text><rect fill="#FA9A85" fill-opacity="0.80000" height="37.6094" rx="7.5" ry="7.5" style="stroke:#A80036;stroke-width:0.0;" width="51" x="169" y="195.5645"/><text fill="#000000" font-family="sans-serif" font-size="14" lengthAdjust="spacing" textLength="31" x="179" y="220.0977">subb</text><rect fill="#FA9A85" fill-opacity="0.60000" height="37.6094" rx="7.5" ry="7.5" style="stroke:#A80036;stroke-width:0.0;" width="59" x="256" y="135.6016"/><text fill="#000000" font-family="sans-serif" font-size="14" lengthAdjust="spacing" textLength="39" x="266" y="160.1348">subbb</text><rect fill="#FA9A85" fill-opacity="0.40000" height="37.6094" rx="7.5" ry="7.5" style="stroke:#A80036;stroke-width:0.0;" width="67" x="351" y="113.7969"/><text fill="#000000" font-family="sans-serif" font-size="14" lengthAdjust="spacing" textLength="47" x="361" y="138.3301">subbbb</text><path d="M315,154.4063 L325,154.4063 C340,154.4063 326,132.6016 341,132.6016 L351,132.6016 " fill="none" style="stroke:#99999999;stroke-width:1.0;"/><rect fill="#FA9A85" fill-opacity="0.40000" height="37.6094" rx="7.5" ry="7.5" style="stroke:#A80036;stroke-width:0.0;" width="67" x="351" y="157.4063"/><text fill="#000000" font-family="sans-serif" font-size="14" lengthAdjust="spacing" textLength="47" x="361" y="181.9395">subbbb</text><path d="M315,154.4063 L325,154.4063 C340,154.4063 326,176.2109 341,176.2109 L351,176.2109 " fill="none" style="stroke:#99999999;stroke-width:1.0;"/><path d="M220,214.3691 L230,214.3691 C245,214.3691 231,154.4063 246,154.4063 L256,154.4063 " fill="none" style="stroke:#99999999;stroke-width:1.0;"/><rect fill="#FA9A85" fill-opacity="0.60000" height="37.6094" rx="7.5" ry="7.5" style="stroke:#A80036;stroke-width:0.0;" width="59" x="256" y="239.1738"/><text fill="#000000" font-family="sans-serif" font-size="14" lengthAdjust="spacing" textLength="39" x="266" y="263.707">subbb</text><rect fill="#FA9A85" fill-opacity="0.40000" height="37.6094" rx="7.5" ry="7.5" style="stroke:#A80036;stroke-width:0.0;" width="67" x="351" y="233.7227"/><text fill="#000000" font-family="sans-serif" font-size="14" lengthAdjust="spacing" textLength="47" x="361" y="258.2559">subbbb</text><rect fill="#FA9A85" fill-opacity="0.20000" height="37.6094" rx="7.5" ry="7.5" style="stroke:#A80036;stroke-width:0.0;" width="75" x="454" y="222.8203"/><text fill="#000000" font-family="sans-serif" font-size="14" lengthAdjust="spacing" textLength="55" x="464" y="247.3535">subbbbb</text><rect fill="#FEFECE" height="37.6094" rx="7.5" ry="7.5" style="stroke:#A80036;stroke-width:0.0;" width="83" x="565" y="201.0156"/><text fill="#000000" font-family="sans-serif" font-size="14" lengthAdjust="spacing" textLength="63" x="575" y="225.5488">subbbbbb</text><path d="M529,241.625 L539,241.625 C554,241.625 540,219.8203 555,219.8203 L565,219.8203 " fill="none" style="stroke:#99999999;stroke-width:1.0;"/><rect fill="#FEFECE" height="37.6094" rx="7.5" ry="7.5" style="stroke:#A80036;stroke-width:0.0;" width="83" x="565" y="244.625"/><text fill="#000000" font-family="sans-serif" font-size="14" lengthAdjust="spacing" textLength="63" x="575" y="269.1582">subbbbbb</text><path d="M529,241.625 L539,241.625 C554,241.625 540,263.4297 555,263.4297 L565,263.4297 " fill="none" style="stroke:#99999999;stroke-width:1.0;"/><path d="M418,252.5273 L428,252.5273 C443,252.5273 429,241.625 444,241.625 L454,241.625 " fill="none" style="stroke:#99999999;stroke-width:1.0;"/><rect fill="#FA9A85" fill-opacity="0.20000" height="37.6094" rx="7.5" ry="7.5" style="stroke:#A80036;stroke-width:0.0;" width="75" x="454" y="266.4297"/><text fill="#000000" font-family="sans-serif" font-size="14" lengthAdjust="spacing" textLength="55" x="464" y="290.9629">subbbbb</text><path d="M418,252.5273 L428,252.5273 C443,252.5273 429,285.2344 444,285.2344 L454,285.2344 " fill="none" style="stroke:#99999999;stroke-width:1.0;"/><path d="M315,257.9785 L325,257.9785 C340,257.9785 326,252.5273 341,252.5273 L351,252.5273 " fill="none" style="stroke:#99999999;stroke-width:1.0;"/><rect fill="#FA9A85" fill-opacity="0.40000" height="37.6094" rx="7.5" ry="7.5" style="stroke:#A80036;stroke-width:0.0;" width="67" x="351" y="277.332"/><text fill="#000000" font-family="sans-serif" font-size="14" lengthAdjust="spacing" textLength="47" x="361" y="301.8652">subbbb</text><path d="M315,257.9785 L325,257.9785 C340,257.9785 326,296.1367 341,296.1367 L351,296.1367 " fill="none" style="stroke:#99999999;stroke-width:1.0;"/><path d="M220,214.3691 L230,214.3691 C245,214.3691 231,257.9785 246,257.9785 L256,257.9785 " fill="none" style="stroke:#99999999;stroke-width:1.0;"/><path d="M133,301.5879 L143,301.5879 C158,301.5879 144,214.3691 159,214.3691 L169,214.3691 " fill="none" style="stroke:#99999999;stroke-width:1.0;"/><rect fill="#FA9A85" fill-opacity="0.80000" height="37.6094" rx="7.5" ry="7.5" style="stroke:#A80036;stroke-width:0.0;" width="51" x="169" y="386.3555"/><text fill="#000000" font-family="sans-serif" font-size="14" lengthAdjust="spacing" textLength="31" x="179" y="410.8887">subb</text><rect fill="#FA9A85" fill-opacity="0.60000" height="37.6094" rx="7.5" ry="7.5" style="stroke:#A80036;stroke-width:0.0;" width="59" x="256" y="342.7461"/><text fill="#000000" font-family="sans-serif" font-size="14" lengthAdjust="spacing" textLength="39" x="266" y="367.2793">subbb</text><rect fill="#FA9A85" fill-opacity="0.40000" height="37.6094" rx="7.5" ry="7.5" style="stroke:#A80036;stroke-width:0.0;" width="67" x="351" y="320.9414"/><text fill="#000000" font-family="sans-serif" font-size="14" lengthAdjust="spacing" textLength="47" x="361" y="345.4746">subbbb</text><path d="M315,361.5508 L325,361.5508 C340,361.5508 326,339.7461 341,339.7461 L351,339.7461 " fill="none" style="stroke:#99999999;stroke-width:1.0;"/><rect fill="#FA9A85" fill-opacity="0.40000" height="37.6094" rx="7.5" ry="7.5" style="stroke:#A80036;stroke-width:0.0;" width="67" x="351" y="364.5508"/><text fill="#000000" font-family="sans-serif" font-size="14" lengthAdjust="spacing" textLength="47" x="361" y="389.084">subbbb</text><path d="M315,361.5508 L325,361.5508 C340,361.5508 326,383.3555 341,383.3555 L351,383.3555 " fill="none" style="stroke:#99999999;stroke-width:1.0;"/><path d="M220,405.1602 L230,405.1602 C245,405.1602 231,361.5508 246,361.5508 L256,361.5508 " fill="none" style="stroke:#99999999;stroke-width:1.0;"/><rect fill="#FA9A85" fill-opacity="0.60000" height="37.6094" rx="7.5" ry="7.5" style="stroke:#A80036;stroke-width:0.0;" width="59" x="256" y="429.9648"/><text fill="#000000" font-family="sans-serif" font-size="14" lengthAdjust="spacing" textLength="39" x="266" y="454.498">subbb</text><rect fill="#FA9A85" fill-opacity="0.40000" height="37.6094" rx="7.5" ry="7.5" style="stroke:#A80036;stroke-width:0.0;" width="67" x="351" y="408.1602"/><text fill="#000000" font-family="sans-serif" font-size="14" lengthAdjust="spacing" textLength="47" x="361" y="432.6934">subbbb</text><path d="M315,448.7695 L325,448.7695 C340,448.7695 326,426.9648 341,426.9648 L351,426.9648 " fill="none" style="stroke:#99999999;stroke-width:1.0;"/><rect fill="#FA9A85" fill-opacity="0.40000" height="37.6094" rx="7.5" ry="7.5" style="stroke:#A80036;stroke-width:0.0;" width="67" x="351" y="451.7695"/><text fill="#000000" font-family="sans-serif" font-size="14" lengthAdjust="spacing" textLength="47" x="361" y="476.3027">subbbb</text><path d="M315,448.7695 L325,448.7695 C340,448.7695 326,470.5742 341,470.5742 L351,470.5742 " fill="none" style="stroke:#99999999;stroke-width:1.0;"/><path d="M220,405.1602 L230,405.1602 C245,405.1602 231,448.7695 246,448.7695 L256,448.7695 " fill="none" style="stroke:#99999999;stroke-width:1.0;"/><path d="M133,301.5879 L143,301.5879 C158,301.5879 144,405.1602 159,405.1602 L169,405.1602 " fill="none" style="stroke:#99999999;stroke-width:1.0;"/><path d="M54,257.9785 L64,257.9785 C79,257.9785 65,301.5879 80,301.5879 L90,301.5879 " fill="none" style="stroke:#99999999;stroke-width:1.0;"/><!--MD5=[4bbe855174333f7eb1adda7fb055fe40]
@startmindmap mindmap
header [nixiy]
skinparam style strictuml
!include wbsTheme.pu

* wbs
** sub
*** subb
*** subb

** sub
*** subb
**** subbb
***** subbbb
***** subbbb
**** subbb
***** subbbb
****** subbbbb
******* subbbbbb
******* subbbbbb
****** subbbbb
***** subbbb
*** subb
**** subbb
***** subbbb
***** subbbb
**** subbb
***** subbbb
***** subbbb

@endmindmap

@startmindmap mindmap
header [nixiy]
skinparam style strictuml
<style>
wbsDiagram,mindmapDiagram {
  node {
    RoundCorner 15
    LineThickness 0 //枠無し
    margin 3
    :depth(0) {
      BackgroundColor #53B0AEBF
    }
    :depth(1) {
      BackgroundColor #FA9A85FF
    }
    :depth(2) {
      BackgroundColor #FA9A85CC
    }
    :depth(3) {
      BackgroundColor #FA9A8599
    }
    :depth(4) {
      BackgroundColor #FA9A8566
    }
    :depth(5) {
      BackgroundColor #FA9A8533
    }
  }
  arrow {
    LineColor  #99999999
  }
  boxless {
    FontColor LightGrey
  }
}
</style>

* wbs
** sub
*** subb
*** subb

** sub
*** subb
**** subbb
***** subbbb
***** subbbb
**** subbb
***** subbbb
****** subbbbb
******* subbbbbb
******* subbbbbb
****** subbbbb
***** subbbb
*** subb
**** subbb
***** subbbb
***** subbbb
**** subbb
***** subbbb
***** subbbb

@endmindmap

PlantUML version 1.2021.7(Sun May 23 21:40:07 JST 2021)
(GPL source distribution)
Java Runtime: Java(TM) SE Runtime Environment
JVM: Java HotSpot(TM) 64-Bit Server VM
Default Encoding: MS932
Language: ja
Country: JP
--></g></svg>