<?xml version="1.0" encoding="UTF-8" standalone="no"?><svg xmlns="http://www.w3.org/2000/svg" xmlns:xlink="http://www.w3.org/1999/xlink" contentScriptType="application/ecmascript" contentStyleType="text/css" height="335px" preserveAspectRatio="none" style="width:489px;height:335px;background:#FFFFFF;" version="1.1" viewBox="0 0 489 335" width="489px" zoomAndPan="magnify"><defs/><g><rect fill="none" height="12.5781" style="stroke:none;stroke-width:1.0;" width="28" x="408.5" y="10"/><text fill="#888888" font-family="sans-serif" font-size="10" lengthAdjust="spacing" textLength="28" x="408.5" y="20.3809">[nixiy]</text><rect fill="#53B0AE" fill-opacity="0.74902" height="35.0938" rx="7.5" ry="7.5" style="stroke:#A80036;stroke-width:0.0;" width="43" x="202.25" y="23.5781"/><text fill="#000000" font-family="sans-serif" font-size="12" lengthAdjust="spacing" textLength="23" x="212.25" y="46.0352">wbs</text><line style="stroke:#99999999;stroke-width:1.5;" x1="223.75" x2="223.75" y1="58.6719" y2="78.6719"/><line style="stroke:#99999999;stroke-width:1.5;" x1="30.5" x2="30.5" y1="78.6719" y2="98.6719"/><rect fill="#FA9A85" height="35.0938" rx="7.5" ry="7.5" style="stroke:#A80036;stroke-width:0.0;" width="41" x="10" y="98.6719"/><text fill="#000000" font-family="sans-serif" font-size="12" lengthAdjust="spacing" textLength="21" x="20" y="121.1289">sub</text><line style="stroke:#99999999;stroke-width:1.5;" x1="30.5" x2="40.5" y1="154.3125" y2="154.3125"/><rect fill="#FA9A85" fill-opacity="0.80000" height="35.0938" rx="7.5" ry="7.5" style="stroke:#A80036;stroke-width:0.0;" width="48" x="40.5" y="136.7656"/><text fill="#000000" font-family="sans-serif" font-size="12" lengthAdjust="spacing" textLength="28" x="50.5" y="159.2227">subb</text><line style="stroke:#99999999;stroke-width:1.5;" x1="64.5" x2="74.5" y1="192.4063" y2="192.4063"/><rect fill="#FA9A85" fill-opacity="0.60000" height="35.0938" rx="7.5" ry="7.5" style="stroke:#A80036;stroke-width:0.0;" width="55" x="74.5" y="174.8594"/><text fill="#000000" font-family="sans-serif" font-size="12" lengthAdjust="spacing" textLength="35" x="84.5" y="197.3164">subbb</text><line style="stroke:#99999999;stroke-width:1.5;" x1="102" x2="112" y1="230.5" y2="230.5"/><rect fill="#FA9A85" fill-opacity="0.40000" height="35.0938" rx="7.5" ry="7.5" style="stroke:#A80036;stroke-width:0.0;" width="62" x="112" y="212.9531"/><text fill="#000000" font-family="sans-serif" font-size="12" lengthAdjust="spacing" textLength="42" x="122" y="235.4102">subbbb</text><line style="stroke:#99999999;stroke-width:1.5;" x1="143" x2="153" y1="268.5938" y2="268.5938"/><rect fill="#FA9A85" fill-opacity="0.20000" height="35.0938" rx="7.5" ry="7.5" style="stroke:#A80036;stroke-width:0.0;" width="69" x="153" y="251.0469"/><text fill="#000000" font-family="sans-serif" font-size="12" lengthAdjust="spacing" textLength="49" x="163" y="273.5039">subbbbb</text><line style="stroke:#99999999;stroke-width:1.5;" x1="187.5" x2="197.5" y1="306.6875" y2="306.6875"/><rect fill="#FEFECE" height="35.0938" rx="7.5" ry="7.5" style="stroke:#A80036;stroke-width:0.0;" width="76" x="197.5" y="289.1406"/><text fill="#000000" font-family="sans-serif" font-size="12" lengthAdjust="spacing" textLength="56" x="207.5" y="311.5977">subbbbbb</text><line style="stroke:#99999999;stroke-width:1.5;" x1="187.5" x2="187.5" y1="286.1406" y2="306.6875"/><line style="stroke:#99999999;stroke-width:1.5;" x1="143" x2="143" y1="248.0469" y2="268.5938"/><line style="stroke:#99999999;stroke-width:1.5;" x1="102" x2="102" y1="209.9531" y2="230.5"/><line style="stroke:#99999999;stroke-width:1.5;" x1="64.5" x2="64.5" y1="171.8594" y2="192.4063"/><line style="stroke:#99999999;stroke-width:1.5;" x1="30.5" x2="30.5" y1="133.7656" y2="154.3125"/><line style="stroke:#99999999;stroke-width:1.5;" x1="314" x2="314" y1="78.6719" y2="98.6719"/><rect fill="#FA9A85" height="35.0938" rx="7.5" ry="7.5" style="stroke:#A80036;stroke-width:0.0;" width="41" x="293.5" y="98.6719"/><text fill="#000000" font-family="sans-serif" font-size="12" lengthAdjust="spacing" textLength="21" x="303.5" y="121.1289">sub</text><line style="stroke:#99999999;stroke-width:1.5;" x1="314" x2="324" y1="154.3125" y2="154.3125"/><rect fill="#FA9A85" fill-opacity="0.80000" height="35.0938" rx="7.5" ry="7.5" style="stroke:#A80036;stroke-width:0.0;" width="48" x="324" y="136.7656"/><text fill="#000000" font-family="sans-serif" font-size="12" lengthAdjust="spacing" textLength="28" x="334" y="159.2227">subb</text><line style="stroke:#99999999;stroke-width:1.5;" x1="314" x2="324" y1="192.4063" y2="192.4063"/><rect fill="#FA9A85" fill-opacity="0.80000" height="35.0938" rx="7.5" ry="7.5" style="stroke:#A80036;stroke-width:0.0;" width="48" x="324" y="174.8594"/><text fill="#000000" font-family="sans-serif" font-size="12" lengthAdjust="spacing" textLength="28" x="334" y="197.3164">subb</text><line style="stroke:#99999999;stroke-width:1.5;" x1="314" x2="314" y1="133.7656" y2="192.4063"/><line style="stroke:#99999999;stroke-width:1.5;" x1="404" x2="404" y1="78.6719" y2="98.6719"/><text fill="#D3D3D3" font-family="sans-serif" font-size="12" lengthAdjust="spacing" textLength="21" x="392" y="112.1289">sub</text><line style="stroke:#99999999;stroke-width:1.5;" x1="404" x2="414" y1="127.3125" y2="127.3125"/><text fill="#D3D3D3" font-family="sans-serif" font-size="12" lengthAdjust="spacing" textLength="28" x="414" y="132.2227">subb</text><line style="stroke:#99999999;stroke-width:1.5;" x1="429.5" x2="439.5" y1="147.4063" y2="147.4063"/><text fill="#D3D3D3" font-family="sans-serif" font-size="12" lengthAdjust="spacing" textLength="35" x="439.5" y="152.3164">subbb</text><line style="stroke:#99999999;stroke-width:1.5;" x1="429.5" x2="429.5" y1="135.8594" y2="147.4063"/><line style="stroke:#99999999;stroke-width:1.5;" x1="404" x2="414" y1="167.5" y2="167.5"/><text fill="#D3D3D3" font-family="sans-serif" font-size="12" lengthAdjust="spacing" textLength="28" x="414" y="172.4102">subb</text><line style="stroke:#99999999;stroke-width:1.5;" x1="404" x2="404" y1="115.7656" y2="167.5"/><line style="stroke:#99999999;stroke-width:1.5;" x1="30.5" x2="404" y1="78.6719" y2="78.6719"/><!--MD5=[2905723032ec28ff8e7a8613ce86a8df]
@startwbs wbs
header [nixiy]
skinparam style strictuml
!include wbsTheme.pu

* wbs
** sub
*** subb
**** subbb
***** subbbb
****** subbbbb
******* subbbbbb

** sub
*** subb
*** subb
**_ sub
***_ subb
****_ subbb
***_ subb

@endwbs

@startwbs wbs
header [nixiy]
skinparam style strictuml
<style>
wbsDiagram,mindmapDiagram {
  node {
    RoundCorner 15
    LineThickness 0 //枠無し
    margin 3
    :depth(0) {
      BackgroundColor #53B0AEBF
    }
    :depth(1) {
      BackgroundColor #FA9A85FF
    }
    :depth(2) {
      BackgroundColor #FA9A85CC
    }
    :depth(3) {
      BackgroundColor #FA9A8599
    }
    :depth(4) {
      BackgroundColor #FA9A8566
    }
    :depth(5) {
      BackgroundColor #FA9A8533
    }
  }
  arrow {
    LineColor  #99999999
  }
  boxless {
    FontColor LightGrey
  }
}
</style>

* wbs
** sub
*** subb
**** subbb
***** subbbb
****** subbbbb
******* subbbbbb

** sub
*** subb
*** subb
**_ sub
***_ subb
****_ subbb
***_ subb

@endwbs

PlantUML version 1.2021.7(Sun May 23 21:40:07 JST 2021)
(GPL source distribution)
Java Runtime: Java(TM) SE Runtime Environment
JVM: Java HotSpot(TM) 64-Bit Server VM
Default Encoding: MS932
Language: ja
Country: JP
--></g></svg>